<mxfile host="app.diagrams.net" modified="2024-07-08T08:31:55.605Z" agent="Mozilla/5.0 (Windows NT 10.0; Win64; x64) AppleWebKit/537.36 (KHTML, like Gecko) Chrome/126.0.0.0 Safari/537.36 Edg/126.0.0.0" etag="Ms--Gkmz7qYwO23uibkw" version="24.6.4" type="device">
  <diagram id="C5RBs43oDa-KdzZeNtuy" name="Page-1">
    <mxGraphModel dx="1631" dy="922" grid="0" gridSize="10" guides="1" tooltips="1" connect="1" arrows="1" fold="1" page="0" pageScale="1" pageWidth="827" pageHeight="1169" math="0" shadow="0">
      <root>
        <mxCell id="WIyWlLk6GJQsqaUBKTNV-0" />
        <mxCell id="WIyWlLk6GJQsqaUBKTNV-1" parent="WIyWlLk6GJQsqaUBKTNV-0" />
        <mxCell id="UDfR3yrx9vs9DHZVbdiW-19" value="" style="edgeStyle=orthogonalEdgeStyle;rounded=0;orthogonalLoop=1;jettySize=auto;html=1;" parent="WIyWlLk6GJQsqaUBKTNV-1" source="UDfR3yrx9vs9DHZVbdiW-2" target="UDfR3yrx9vs9DHZVbdiW-3" edge="1">
          <mxGeometry relative="1" as="geometry" />
        </mxCell>
        <mxCell id="UDfR3yrx9vs9DHZVbdiW-0" value="&lt;font style=&quot;font-size: 20px;&quot;&gt;开始&lt;/font&gt;" style="rounded=1;whiteSpace=wrap;html=1;" parent="WIyWlLk6GJQsqaUBKTNV-1" vertex="1">
          <mxGeometry x="270" y="110" width="120" height="50" as="geometry" />
        </mxCell>
        <mxCell id="UDfR3yrx9vs9DHZVbdiW-18" value="" style="edgeStyle=orthogonalEdgeStyle;rounded=0;orthogonalLoop=1;jettySize=auto;html=1;" parent="WIyWlLk6GJQsqaUBKTNV-1" source="UDfR3yrx9vs9DHZVbdiW-2" target="UDfR3yrx9vs9DHZVbdiW-3" edge="1">
          <mxGeometry relative="1" as="geometry" />
        </mxCell>
        <mxCell id="UDfR3yrx9vs9DHZVbdiW-17" value="" style="edgeStyle=orthogonalEdgeStyle;rounded=0;orthogonalLoop=1;jettySize=auto;html=1;" parent="WIyWlLk6GJQsqaUBKTNV-1" source="UDfR3yrx9vs9DHZVbdiW-3" target="UDfR3yrx9vs9DHZVbdiW-4" edge="1">
          <mxGeometry relative="1" as="geometry" />
        </mxCell>
        <mxCell id="UDfR3yrx9vs9DHZVbdiW-3" value="&lt;font style=&quot;font-size: 20px;&quot;&gt;设计方案&lt;/font&gt;" style="rounded=0;whiteSpace=wrap;html=1;" parent="WIyWlLk6GJQsqaUBKTNV-1" vertex="1">
          <mxGeometry x="270" y="247" width="120" height="50" as="geometry" />
        </mxCell>
        <mxCell id="UDfR3yrx9vs9DHZVbdiW-16" value="" style="edgeStyle=orthogonalEdgeStyle;rounded=0;orthogonalLoop=1;jettySize=auto;html=1;" parent="WIyWlLk6GJQsqaUBKTNV-1" source="UDfR3yrx9vs9DHZVbdiW-4" target="UDfR3yrx9vs9DHZVbdiW-5" edge="1">
          <mxGeometry relative="1" as="geometry" />
        </mxCell>
        <mxCell id="UDfR3yrx9vs9DHZVbdiW-4" value="&lt;font style=&quot;font-size: 20px;&quot;&gt;开发环境搭建&lt;/font&gt;" style="rounded=0;whiteSpace=wrap;html=1;" parent="WIyWlLk6GJQsqaUBKTNV-1" vertex="1">
          <mxGeometry x="262" y="314" width="136" height="50" as="geometry" />
        </mxCell>
        <mxCell id="UDfR3yrx9vs9DHZVbdiW-15" value="" style="edgeStyle=orthogonalEdgeStyle;rounded=0;orthogonalLoop=1;jettySize=auto;html=1;" parent="WIyWlLk6GJQsqaUBKTNV-1" source="UDfR3yrx9vs9DHZVbdiW-5" target="UDfR3yrx9vs9DHZVbdiW-6" edge="1">
          <mxGeometry relative="1" as="geometry" />
        </mxCell>
        <mxCell id="UDfR3yrx9vs9DHZVbdiW-5" value="&lt;font style=&quot;font-size: 20px;&quot;&gt;开发环境搭建&lt;/font&gt;" style="rounded=0;whiteSpace=wrap;html=1;" parent="WIyWlLk6GJQsqaUBKTNV-1" vertex="1">
          <mxGeometry x="267.99" y="384" width="124" height="50" as="geometry" />
        </mxCell>
        <mxCell id="UDfR3yrx9vs9DHZVbdiW-14" value="" style="edgeStyle=orthogonalEdgeStyle;rounded=0;orthogonalLoop=1;jettySize=auto;html=1;" parent="WIyWlLk6GJQsqaUBKTNV-1" source="UDfR3yrx9vs9DHZVbdiW-6" target="UDfR3yrx9vs9DHZVbdiW-7" edge="1">
          <mxGeometry relative="1" as="geometry" />
        </mxCell>
        <mxCell id="UDfR3yrx9vs9DHZVbdiW-6" value="&lt;font style=&quot;font-size: 20px;&quot;&gt;程序设计&lt;/font&gt;" style="rounded=0;whiteSpace=wrap;html=1;" parent="WIyWlLk6GJQsqaUBKTNV-1" vertex="1">
          <mxGeometry x="270" y="451" width="120" height="50" as="geometry" />
        </mxCell>
        <mxCell id="UDfR3yrx9vs9DHZVbdiW-13" value="" style="edgeStyle=orthogonalEdgeStyle;rounded=0;orthogonalLoop=1;jettySize=auto;html=1;" parent="WIyWlLk6GJQsqaUBKTNV-1" source="UDfR3yrx9vs9DHZVbdiW-7" target="UDfR3yrx9vs9DHZVbdiW-8" edge="1">
          <mxGeometry relative="1" as="geometry" />
        </mxCell>
        <mxCell id="UDfR3yrx9vs9DHZVbdiW-7" value="&lt;font style=&quot;font-size: 20px;&quot;&gt;测试&lt;/font&gt;" style="rounded=0;whiteSpace=wrap;html=1;" parent="WIyWlLk6GJQsqaUBKTNV-1" vertex="1">
          <mxGeometry x="269.99" y="534" width="120" height="50" as="geometry" />
        </mxCell>
        <mxCell id="UDfR3yrx9vs9DHZVbdiW-11" value="" style="edgeStyle=orthogonalEdgeStyle;rounded=0;orthogonalLoop=1;jettySize=auto;html=1;" parent="WIyWlLk6GJQsqaUBKTNV-1" source="UDfR3yrx9vs9DHZVbdiW-8" target="UDfR3yrx9vs9DHZVbdiW-9" edge="1">
          <mxGeometry relative="1" as="geometry" />
        </mxCell>
        <mxCell id="UDfR3yrx9vs9DHZVbdiW-12" value="" style="edgeStyle=orthogonalEdgeStyle;rounded=0;orthogonalLoop=1;jettySize=auto;html=1;" parent="WIyWlLk6GJQsqaUBKTNV-1" source="UDfR3yrx9vs9DHZVbdiW-8" target="UDfR3yrx9vs9DHZVbdiW-10" edge="1">
          <mxGeometry relative="1" as="geometry">
            <Array as="points">
              <mxPoint x="510" y="651" />
            </Array>
          </mxGeometry>
        </mxCell>
        <mxCell id="UDfR3yrx9vs9DHZVbdiW-21" value="&lt;font style=&quot;font-size: 16px;&quot;&gt;N&lt;/font&gt;" style="edgeLabel;html=1;align=center;verticalAlign=middle;resizable=0;points=[];" parent="UDfR3yrx9vs9DHZVbdiW-12" vertex="1" connectable="0">
          <mxGeometry x="-0.3856" y="3" relative="1" as="geometry">
            <mxPoint x="-14" y="-8" as="offset" />
          </mxGeometry>
        </mxCell>
        <mxCell id="UDfR3yrx9vs9DHZVbdiW-8" value="&lt;font style=&quot;font-size: 20px;&quot;&gt;是否满足要求&lt;/font&gt;" style="html=1;whiteSpace=wrap;aspect=fixed;shape=isoRectangle;" parent="WIyWlLk6GJQsqaUBKTNV-1" vertex="1">
          <mxGeometry x="257.15" y="607" width="145.65" height="87.39" as="geometry" />
        </mxCell>
        <mxCell id="UDfR3yrx9vs9DHZVbdiW-9" value="&lt;font style=&quot;font-size: 20px;&quot;&gt;设计结束&lt;/font&gt;" style="rounded=0;whiteSpace=wrap;html=1;" parent="WIyWlLk6GJQsqaUBKTNV-1" vertex="1">
          <mxGeometry x="269.98" y="719" width="120" height="50" as="geometry" />
        </mxCell>
        <mxCell id="UDfR3yrx9vs9DHZVbdiW-10" value="&lt;font style=&quot;font-size: 20px;&quot;&gt;调试和优化&lt;/font&gt;" style="rounded=0;whiteSpace=wrap;html=1;" parent="WIyWlLk6GJQsqaUBKTNV-1" vertex="1">
          <mxGeometry x="446" y="560" width="130" height="30" as="geometry" />
        </mxCell>
        <mxCell id="UDfR3yrx9vs9DHZVbdiW-20" value="" style="edgeStyle=orthogonalEdgeStyle;rounded=0;orthogonalLoop=1;jettySize=auto;html=1;" parent="WIyWlLk6GJQsqaUBKTNV-1" source="UDfR3yrx9vs9DHZVbdiW-0" target="UDfR3yrx9vs9DHZVbdiW-2" edge="1">
          <mxGeometry relative="1" as="geometry">
            <mxPoint x="330" y="160" as="sourcePoint" />
            <mxPoint x="330" y="280" as="targetPoint" />
          </mxGeometry>
        </mxCell>
        <mxCell id="UDfR3yrx9vs9DHZVbdiW-2" value="&lt;font style=&quot;font-size: 20px;&quot;&gt;需求分析&lt;/font&gt;" style="rounded=0;whiteSpace=wrap;html=1;" parent="WIyWlLk6GJQsqaUBKTNV-1" vertex="1">
          <mxGeometry x="270" y="180" width="120" height="50" as="geometry" />
        </mxCell>
        <mxCell id="UDfR3yrx9vs9DHZVbdiW-22" value="&lt;font style=&quot;font-size: 16px;&quot;&gt;Y&lt;/font&gt;" style="text;html=1;align=center;verticalAlign=middle;resizable=0;points=[];autosize=1;strokeColor=none;fillColor=none;" parent="WIyWlLk6GJQsqaUBKTNV-1" vertex="1">
          <mxGeometry x="321" y="684" width="30" height="30" as="geometry" />
        </mxCell>
        <mxCell id="UDfR3yrx9vs9DHZVbdiW-23" value="" style="endArrow=classic;html=1;rounded=0;exitX=0.489;exitY=0.031;exitDx=0;exitDy=0;exitPerimeter=0;" parent="WIyWlLk6GJQsqaUBKTNV-1" source="UDfR3yrx9vs9DHZVbdiW-10" edge="1">
          <mxGeometry width="50" height="50" relative="1" as="geometry">
            <mxPoint x="511" y="513" as="sourcePoint" />
            <mxPoint x="330" y="514" as="targetPoint" />
            <Array as="points">
              <mxPoint x="510" y="560" />
              <mxPoint x="510" y="514" />
            </Array>
          </mxGeometry>
        </mxCell>
      </root>
    </mxGraphModel>
  </diagram>
</mxfile>
